<svg width="186" height="186" viewBox="0 0 186 186" fill="none" xmlns="http://www.w3.org/2000/svg">
<mask id="path-1-outside-1_173_136" maskUnits="userSpaceOnUse" x="28.75" y="36.5" width="121" height="121" fill="black">
<rect fill="white" x="28.75" y="36.5" width="121" height="121"/>
<path d="M114.836 47.9142L46.8917 115.858C46.6971 116.053 46.5997 116.15 46.5328 116.269C46.4658 116.387 46.4324 116.52 46.3656 116.787L38.9521 146.442L38.9521 146.442C38.8619 146.803 38.8167 146.983 38.9168 147.083C39.0169 147.183 39.1974 147.138 39.5585 147.048L69.2126 139.634L69.2126 139.634C69.4797 139.568 69.6132 139.534 69.7314 139.467C69.8497 139.4 69.947 139.303 70.1417 139.108L70.1417 139.108L138.086 71.1642C138.752 70.4975 139.086 70.1642 139.086 69.75C139.086 69.3358 138.752 69.0025 138.086 68.3358L117.664 47.9142L117.664 47.9142C116.998 47.2475 116.664 46.9142 116.25 46.9142C115.836 46.9142 115.502 47.2475 114.836 47.9142L114.836 47.9142Z"/>
</mask>
<path d="M46.8917 115.858L53.9627 122.929L53.9628 122.929L46.8917 115.858ZM114.836 47.9142L108.567 40.1234L108.146 40.4616L107.765 40.8431L114.836 47.9142ZM117.664 47.9142L124.735 40.8431L124.337 40.4447L123.896 40.0936L117.664 47.9142ZM138.086 68.3358L131.015 75.4069L131.015 75.4069L138.086 68.3358ZM138.086 71.1642L131.015 64.0931L131.015 64.0931L138.086 71.1642ZM70.1417 139.108L63.0706 132.037L62.917 132.191L62.7702 132.351L70.1417 139.108ZM46.3656 116.787L56.0671 119.213L46.3656 116.787ZM38.9521 146.442L29.2507 144.016L29.1692 144.342L29.1097 144.673L38.9521 146.442ZM39.5585 147.048L41.9838 156.749L41.9838 156.749L39.5585 147.048ZM69.2126 139.634L71.6379 149.336L71.8976 149.271L72.1534 149.192L69.2126 139.634ZM38.9521 146.442L48.6535 148.867L48.735 148.541L48.7945 148.21L38.9521 146.442ZM38.9168 147.083L31.8457 154.154L31.8457 154.154L38.9168 147.083ZM70.1417 139.108L77.2124 146.18L77.3662 146.026L77.5132 145.866L70.1417 139.108ZM69.7314 139.467L74.6582 148.169L74.6586 148.169L69.7314 139.467ZM69.2126 139.634L66.7877 129.933L66.5278 129.998L66.2718 130.077L69.2126 139.634ZM114.836 47.9142L121.105 55.705L121.525 55.3668L121.907 54.9852L114.836 47.9142ZM117.664 47.9142L110.593 54.9852L110.992 55.3836L111.432 55.7348L117.664 47.9142ZM46.5328 116.269L37.8308 111.341L37.8307 111.342L46.5328 116.269ZM53.9628 122.929L121.907 54.9853L107.765 40.8431L39.8206 108.787L53.9628 122.929ZM110.593 54.9853L131.015 75.4069L145.157 61.2647L124.735 40.8431L110.593 54.9853ZM131.015 64.0931L63.0706 132.037L77.2128 146.179L145.157 78.2353L131.015 64.0931ZM36.6642 114.362L29.2507 144.016L48.6535 148.867L56.0671 119.213L36.6642 114.362ZM41.9838 156.749L71.6379 149.336L66.7872 129.933L37.1331 137.346L41.9838 156.749ZM29.1097 144.673L29.1097 144.673L48.7945 148.21L48.7945 148.21L29.1097 144.673ZM29.2507 144.016C29.2379 144.067 29.182 144.288 29.1316 144.515C29.0849 144.726 28.9737 145.241 28.9106 145.887C28.7989 147.029 28.6084 150.917 31.8457 154.154L45.988 140.012C49.1251 143.149 48.9072 146.897 48.8156 147.834C48.7625 148.377 48.6732 148.773 48.6572 148.845C48.6376 148.934 48.6212 148.996 48.6535 148.867L29.2507 144.016ZM37.1331 137.346C37.0038 137.379 37.0665 137.362 37.1549 137.343C37.227 137.327 37.6235 137.238 38.1662 137.184C39.1027 137.093 42.8507 136.875 45.9879 140.012L31.8457 154.154C35.0831 157.392 38.9713 157.201 40.1133 157.089C40.7588 157.026 41.2744 156.915 41.485 156.868C41.7119 156.818 41.9326 156.762 41.9838 156.749L37.1331 137.346ZM62.7702 132.351L62.7701 132.351L77.5132 145.866L77.5133 145.866L62.7702 132.351ZM63.0709 132.037C63.0115 132.096 63.0093 132.098 63.0163 132.092C63.0251 132.083 63.1044 132.005 63.2228 131.899C63.4865 131.662 64.0266 131.206 64.8043 130.765L74.6586 148.169C75.5545 147.662 76.2025 147.124 76.593 146.773C76.8993 146.497 77.1866 146.206 77.2124 146.18L63.0709 132.037ZM72.1534 149.192L72.1535 149.192L66.2718 130.077L66.2717 130.077L72.1534 149.192ZM71.6376 149.336C71.6735 149.327 72.0716 149.231 72.4655 149.11C72.9678 148.955 73.7625 148.676 74.6582 148.169L64.8047 130.765C65.5821 130.325 66.2509 130.096 66.5901 129.992C66.7424 129.945 66.8501 129.917 66.8622 129.914C66.8718 129.912 66.8689 129.912 66.7877 129.933L71.6376 149.336ZM131.015 75.4069C131.103 75.4947 131.16 75.5525 131.21 75.6029C131.259 75.6521 131.276 75.6703 131.276 75.6702C131.275 75.6689 131.265 75.659 131.25 75.642C131.234 75.6249 131.21 75.5979 131.178 75.562C131.118 75.4939 131.014 75.3712 130.886 75.2034C130.374 74.5323 129.086 72.6084 129.086 69.75H149.086C149.086 66.4774 147.631 64.1798 146.786 63.0718C146.117 62.1945 145.29 61.3982 145.157 61.2647L131.015 75.4069ZM145.157 78.2353C145.29 78.1019 146.117 77.3055 146.786 76.4282C147.631 75.3202 149.086 73.0226 149.086 69.75H129.086C129.086 66.8916 130.374 64.9677 130.886 64.2966C131.014 64.1288 131.118 64.0061 131.178 63.938C131.21 63.9021 131.234 63.8751 131.25 63.858C131.265 63.841 131.275 63.8311 131.276 63.8298C131.276 63.8297 131.259 63.8479 131.21 63.8971C131.16 63.9475 131.103 64.0053 131.015 64.0931L145.157 78.2353ZM121.105 55.7051L121.105 55.705L108.567 40.1233L108.567 40.1234L121.105 55.7051ZM121.907 54.9852C121.995 54.8974 122.053 54.8397 122.103 54.7898C122.152 54.7412 122.17 54.7238 122.17 54.7239C122.169 54.7251 122.159 54.7345 122.142 54.7502C122.125 54.7658 122.098 54.7904 122.062 54.8218C121.994 54.8816 121.871 54.9864 121.703 55.1144C121.032 55.6265 119.108 56.9142 116.25 56.9142V36.9142C112.977 36.9142 110.68 38.3686 109.572 39.214C108.695 39.8833 107.898 40.7097 107.765 40.8431L121.907 54.9852ZM123.896 40.0936L123.896 40.0936L111.432 55.7348L111.432 55.7348L123.896 40.0936ZM124.735 40.8431C124.602 40.7097 123.805 39.8833 122.928 39.214C121.82 38.3686 119.523 36.9142 116.25 36.9142V56.9142C113.392 56.9142 111.468 55.6265 110.797 55.1144C110.629 54.9864 110.506 54.8816 110.438 54.8218C110.402 54.7904 110.375 54.7658 110.358 54.7502C110.341 54.7345 110.331 54.7251 110.33 54.7239C110.33 54.7238 110.348 54.7412 110.397 54.7898C110.447 54.8397 110.505 54.8974 110.593 54.9852L124.735 40.8431ZM39.8207 108.787C39.7947 108.813 39.5028 109.1 39.2274 109.407C38.8761 109.798 38.3381 110.446 37.8308 111.341L55.2347 121.196C54.7944 121.973 54.3385 122.513 54.1014 122.777C53.9949 122.896 53.917 122.975 53.9083 122.984C53.9014 122.991 53.9034 122.989 53.9627 122.929L39.8207 108.787ZM56.0671 119.213C56.0874 119.131 56.0883 119.128 56.0858 119.138C56.0826 119.15 56.0547 119.258 56.0079 119.41C55.9037 119.749 55.6751 120.418 55.2349 121.195L37.8307 111.342C37.3235 112.238 37.0447 113.032 36.8904 113.535C36.7693 113.928 36.6731 114.326 36.6642 114.362L56.0671 119.213Z" fill="black" mask="url(#path-1-outside-1_173_136)"/>
<path d="M96.875 58.125L120.125 42.625L143.375 65.875L127.875 89.125L96.875 58.125Z" fill="black"/>
</svg>
