<svg width="51" height="51" viewBox="0 0 51 51" fill="none" xmlns="http://www.w3.org/2000/svg">
<g clip-path="url(#clip0_19_2372)">
<path d="M47.8406 17.4891C49.5852 17.4891 51 16.0745 51 14.3297V3.15942C51 1.41458 49.5852 0 47.8406 0H36.6703C34.9255 0 33.5109 1.41458 33.5109 3.15942C33.5109 4.90426 34.9255 6.31884 36.6703 6.31884H40.2131L25.4999 21.0321L10.7869 6.31884H14.3297C16.0745 6.31884 17.4891 4.90426 17.4891 3.15942C17.4891 1.41458 16.0745 0 14.3297 0H3.15942C1.41479 0 0 1.41458 0 3.15942V14.3297C0 16.0745 1.41479 17.4891 3.15942 17.4891C4.90447 17.4891 6.31884 16.0745 6.31884 14.3297V10.7869L21.0321 25.5001L6.31884 40.2131V36.6703C6.31884 34.9255 4.90447 33.5109 3.15942 33.5109C1.41479 33.5109 0 34.9255 0 36.6703V47.8406C0 49.5854 1.41479 51 3.15942 51H14.3297C16.0745 51 17.4891 49.5854 17.4891 47.8406C17.4891 46.0957 16.0745 44.6812 14.3297 44.6812H10.7869L25.5001 29.9679L40.2133 44.6812H36.6703C34.9255 44.6812 33.5109 46.0957 33.5109 47.8406C33.5109 49.5854 34.9255 51 36.6703 51H47.8406C49.5852 51 51 49.5854 51 47.8406V36.6703C51 34.9255 49.5852 33.5109 47.8406 33.5109C46.0955 33.5109 44.6812 34.9255 44.6812 36.6703V40.2131L29.9679 25.4999L44.6812 10.7867V14.3294C44.6812 16.0745 46.0955 17.4891 47.8406 17.4891Z" fill="black" fill-opacity="0.6"/>
</g>
<defs>
<clipPath id="clip0_19_2372">
<rect width="51" height="51" fill="white"/>
</clipPath>
</defs>
</svg>
