<svg width="50" height="50" viewBox="0 0 50 50" fill="none" xmlns="http://www.w3.org/2000/svg">
<path d="M21.875 25H25V33.3333H29.1667M25 16.6667H25.0209M28.2559 43.4651C30.6808 43.0376 32.9977 42.1366 35.0744 40.8136C37.151 39.4906 38.9468 37.7715 40.3591 35.7546C41.7714 33.7376 42.7726 31.4622 43.3056 29.0582C43.8385 26.6543 43.8927 24.169 43.4651 21.7441C43.0376 19.3192 42.1366 17.0023 40.8136 14.9256C39.4906 12.849 37.7715 11.0532 35.7546 9.6409C33.7376 8.22859 31.4622 7.22739 29.0582 6.69445C26.6543 6.16151 24.169 6.10728 21.7441 6.53486C19.3192 6.96243 17.0023 7.86343 14.9256 9.18641C12.849 10.5094 11.0532 12.2285 9.6409 14.2454C8.22859 16.2624 7.22738 18.5378 6.69445 20.9418C6.16151 23.3457 6.10728 25.831 6.53486 28.2559C6.96243 30.6808 7.86343 32.9977 9.18641 35.0744C10.5094 37.151 12.2285 38.9468 14.2454 40.3591C16.2624 41.7714 18.5378 42.7726 20.9418 43.3056C23.3457 43.8385 25.831 43.8927 28.2559 43.4651Z" stroke="#444444" stroke-width="5" stroke-linecap="round" stroke-linejoin="round"/>
</svg>
